HIERARCHY
ROOT Hips
{
	OFFSET 0.000000 0.000000 0.000000
	CHANNELS 6 Xposition Yposition Zposition Zrotation Yrotation Xrotation 
	JOINT LHipJoint
	{
		OFFSET 0.000000 0.000000 0.000000
		CHANNELS 3 Zrotation Yrotation Xrotation
		JOINT LeftUpLeg
		{
			OFFSET 1.363060 -1.794630 0.839290
			CHANNELS 3 Zrotation Yrotation Xrotation
			JOINT LeftLeg
			{
				OFFSET 2.448110 -6.726130 0.000000
				CHANNELS 3 Zrotation Yrotation Xrotation
				JOINT LeftFoot
				{
					OFFSET 2.562200 -7.039590 0.000000
					CHANNELS 3 Zrotation Yrotation Xrotation
					JOINT LeftToeBase
					{
						OFFSET 0.157640 -0.433110 2.322550
						CHANNELS 3 Zrotation Yrotation Xrotation
						End Site
						{
							OFFSET 0.000000 0.000000 0.000000
						}
					}
				}
			}
		}
	}
	JOINT RHipJoint
	{
		OFFSET 0.000000 0.000000 0.000000
		CHANNELS 3 Zrotation Yrotation Xrotation
		JOINT RightUpLeg
		{
			OFFSET -1.305520 -1.794630 0.839290
			CHANNELS 3 Zrotation Yrotation Xrotation
			JOINT RightLeg
			{
				OFFSET -2.542530 -6.985550 0.000000
				CHANNELS 3 Zrotation Yrotation Xrotation
				JOINT RightFoot
				{
					OFFSET -2.568260 -7.056230 0.000000
					CHANNELS 3 Zrotation Yrotation Xrotation
					JOINT RightToeBase
					{
						OFFSET -0.164730 -0.452590 2.363150
						CHANNELS 3 Zrotation Yrotation Xrotation
						End Site
						{
							OFFSET 0.000000 0.000000 0.000000
						}
					}
				}
			}
		}
	}
	JOINT LowerBack
	{
		OFFSET 0.000000 0.000000 0.000000
		CHANNELS 3 Zrotation Yrotation Xrotation
		JOINT Spine
		{
			OFFSET 0.028270 2.035590 -0.193380
			CHANNELS 3 Zrotation Yrotation Xrotation
			JOINT Spine1
			{
				OFFSET 0.056720 2.048850 -0.042750
				CHANNELS 3 Zrotation Yrotation Xrotation
				JOINT Neck
				{
					OFFSET 0.000000 0.000000 0.000000
					CHANNELS 3 Zrotation Yrotation Xrotation
					JOINT Neck1
					{
						OFFSET -0.054170 1.746240 0.172020
						CHANNELS 3 Zrotation Yrotation Xrotation
						JOINT Head
						{
							OFFSET 0.104070 1.761360 -0.123970
							CHANNELS 3 Zrotation Yrotation Xrotation
							End Site
							{
								OFFSET 0.000000 0.000000 0.000000
							}
						}
					}
				}
				JOINT LeftShoulder
				{
					OFFSET 0.000000 0.000000 0.000000
					CHANNELS 3 Zrotation Yrotation Xrotation
					JOINT LeftArm
					{
						OFFSET 3.362410 1.200890 -0.311210
						CHANNELS 3 Zrotation Yrotation Xrotation
						JOINT LeftForeArm
						{
							OFFSET 4.983000 -0.000000 -0.000000
							CHANNELS 3 Zrotation Yrotation Xrotation
							JOINT LeftHand
							{
								OFFSET 3.483560 -0.000000 -0.000000
								CHANNELS 3 Zrotation Yrotation Xrotation
								JOINT LeftFingerBase
								{
									OFFSET 0.000000 0.000000 0.000000
									CHANNELS 3 Zrotation Yrotation Xrotation
									JOINT LeftHandIndex1
									{
										OFFSET 0.715260 -0.000000 -0.000000
										CHANNELS 3 Zrotation Yrotation Xrotation
										End Site
										{
											OFFSET 0.000000 0.000000 0.000000
										}
									}
								}
								JOINT LThumb
								{
									OFFSET 0.000000 0.000000 0.000000
									CHANNELS 3 Zrotation Yrotation Xrotation
									End Site
									{
										OFFSET 0.000000 0.000000 0.000000
									}
								}
							}
						}
					}
				}
				JOINT RightShoulder
				{
					OFFSET 0.000000 0.000000 0.000000
					CHANNELS 3 Zrotation Yrotation Xrotation
					JOINT RightArm
					{
						OFFSET -3.136600 1.374050 -0.404650
						CHANNELS 3 Zrotation Yrotation Xrotation
						JOINT RightForeArm
						{
							OFFSET -5.241900 -0.000000 -0.000000
							CHANNELS 3 Zrotation Yrotation Xrotation
							JOINT RightHand
							{
								OFFSET -3.444170 -0.000000 -0.000000
								CHANNELS 3 Zrotation Yrotation Xrotation
								JOINT RightFingerBase
								{
									OFFSET 0.000000 0.000000 0.000000
									CHANNELS 3 Zrotation Yrotation Xrotation
									JOINT RightHandIndex1
									{
										OFFSET -0.622530 -0.000000 -0.000000
										CHANNELS 3 Zrotation Yrotation Xrotation
										End Site
										{
											OFFSET 0.000000 0.000000 0.000000
										}
									}
								}
								JOINT RThumb
								{
									OFFSET 0.000000 0.000000 0.000000
									CHANNELS 3 Zrotation Yrotation Xrotation
									End Site
									{
										OFFSET 0.000000 0.000000 0.000000
									}
								}
							}
						}
					}
				}
			}
		}
	}
}
MOTION
Frames: 9
Frame Time: 0.008333
3.314988 16.568136 -1.372447 -176.920549 79.763856 -173.163973 -9.852251 2.379911 -1.075940 -21.000565 11.645183 -8.395726 -2.926076 0.130085 22.487758 2.633768 8.754566 -25.896335 -3.638700 0.000000 -0.427900 9.926778 0.855778 -0.946353 1.483164 -11.304628 -34.992213 0.709118 -3.061172 47.038990 -4.200554 -18.463422 -17.623294 2.511900 0.000001 -32.759699 1.276354 -2.737299 1.224259 -0.190961 -2.778428 -2.026262 -5.285931 -2.772740 3.300057 8.795270 -14.750771 -12.106332 -1.796598 -0.068730 -1.216015 0.000000 0.000000 0.000000 0.309735 22.938711 0.861104 -71.886583 8.098863 1.372943 -2.623873 -40.037180 -0.002497 11.237981 -1.493265 -0.153081 -0.185801 0.047936 -0.000000 0.000000 0.000000 0.000000 0.000000 0.000000 0.000000 10.212747 -11.776799 0.759122 79.127833 -6.389276 -29.278298 3.918379 6.966004 0.006811 -3.887295 4.405852 -0.158106 0.153875 -0.082774 -0.000000 0.000000 0.000000 0.000000 0.000000 0.000000 0.000000 
3.521125 16.652231 -1.435213 -173.836237 79.022369 -169.987820 -9.999611 2.492691 -0.735158 -19.887206 11.243876 -6.593871 -2.858393 -0.043210 19.912008 2.423675 8.247685 -24.235613 -3.160201 -0.000000 -2.243899 9.695051 0.833047 -0.979709 3.293228 -11.901355 -35.713748 0.914733 -2.872135 45.068030 -4.293958 -18.493838 -17.760787 2.536600 -0.000001 -33.026900 2.228514 -2.905849 0.772080 -0.001649 -3.020108 -2.093517 -5.284572 -3.014968 3.356136 8.703516 -15.232343 -12.088674 -1.831865 -0.072750 -1.200902 0.000000 0.000000 0.000000 0.796475 22.725301 0.686268 -70.755265 8.063768 1.966463 -2.442013 -43.369493 -0.004351 12.222751 -2.129598 -0.237732 -0.198490 0.066231 -0.000000 0.000000 0.000000 0.000000 0.000000 0.000000 0.000000 10.452616 -12.421181 0.776738 79.844582 -7.732237 -28.595376 4.124118 6.846800 0.004088 -2.146381 2.333788 -0.047855 0.148607 -0.065537 -0.000000 0.000000 0.000000 0.000000 0.000000 0.000000 0.000000 
3.729633 16.741326 -1.497786 -171.293708 78.145511 -167.366079 -10.197633 2.637298 -0.369916 -18.711912 10.802891 -4.880685 -2.765049 -0.176536 17.460173 2.200587 7.774350 -22.321518 -2.667400 -0.000000 -4.372200 9.436604 0.775854 -1.019655 5.125524 -12.540540 -36.230153 1.143116 -2.653815 42.839284 -4.321702 -18.230705 -17.712044 2.466600 -0.000001 -34.104500 3.135288 -3.107037 0.292902 0.182957 -3.295760 -2.164782 -5.288786 -3.289773 3.416601 8.658055 -15.789348 -12.076256 -1.867242 -0.076836 -1.186625 0.000000 0.000000 0.000000 1.394638 22.456915 0.511659 -69.614484 8.182012 2.558518 -2.257327 -46.693747 -0.007358 12.973141 -2.494766 -0.296688 -0.210221 0.085030 -0.000000 0.000000 0.000000 0.000000 0.000000 0.000000 0.000000 10.754080 -13.144587 0.785485 80.445300 -9.087821 -27.653606 4.339188 7.004722 0.001376 -0.264495 0.485068 -0.001700 0.141912 -0.048737 -0.000000 0.000000 0.000000 0.000000 0.000000 0.000000 0.000000 
3.939407 16.834530 -1.558397 -169.388829 77.116256 -165.401170 -10.431777 2.810528 0.002971 -17.503040 10.341351 -3.290025 -2.649248 -0.261295 15.227692 1.968462 7.318988 -20.161776 -2.166000 0.000000 -6.904400 9.166555 0.684572 -1.058560 6.905293 -13.214883 -36.524408 1.390287 -2.410938 40.354523 -4.274509 -17.686347 -17.387571 2.276100 -0.000000 -36.109600 3.955046 -3.350033 -0.197087 0.355585 -3.611141 -2.237228 -5.301604 -3.602836 3.479786 8.672030 -16.410734 -12.070377 -1.906806 -0.081283 -1.173837 0.000000 0.000000 0.000000 2.107519 22.119818 0.339125 -68.455121 8.416551 3.114201 -2.073915 -49.948538 -0.011388 13.496294 -2.611658 -0.325055 -0.220365 0.104000 -0.000000 0.000000 0.000000 0.000000 0.000000 0.000000 0.000000 11.146461 -13.939951 0.784258 80.924974 -10.425230 -26.585385 4.548072 7.365488 -0.001188 1.647039 -1.053319 -0.013339 0.134248 -0.033351 -0.000000 0.000000 0.000000 0.000000 0.000000 0.000000 0.000000 
4.149348 16.931211 -1.615572 -168.116177 75.933682 -164.094090 -10.681016 3.009201 0.367175 -16.288030 9.876175 -1.849239 -2.517436 -0.291887 13.289428 1.732417 6.866969 -17.764933 -1.664200 0.000000 -9.970200 8.904921 0.566192 -1.089138 8.562441 -13.909894 -36.581081 1.649811 -2.146376 37.619489 -4.149509 -16.904948 -16.714392 1.956800 0.000000 -39.021500 4.657588 -3.638649 -0.683142 0.510615 -3.967168 -2.308554 -5.325141 -3.955163 3.543001 8.754007 -17.085032 -12.071631 -1.953949 -0.086344 -1.162873 0.000000 0.000000 0.000000 2.926457 21.700972 0.169782 -67.269208 8.738346 3.598967 -1.895791 -53.090386 -0.016188 13.806847 -2.517684 -0.323340 -0.228308 0.122713 -0.000000 0.000000 0.000000 0.000000 0.000000 0.000000 0.000000 11.651500 -14.798442 0.772308 81.283763 -11.715275 -25.519910 4.736000 7.850175 -0.003448 3.466213 -2.233470 -0.064372 0.126178 -0.020113 -0.000000 0.000000 0.000000 0.000000 0.000000 0.000000 0.000000 
4.358657 17.030758 -1.668245 -167.410235 74.610934 -163.382026 -10.923833 3.229069 0.709074 -15.095405 9.417011 -0.579381 -2.377046 -0.266707 11.697865 1.499572 6.411240 -15.145291 -1.174300 -0.000000 -13.682700 8.671930 0.432565 -1.104948 10.032511 -14.602331 -36.389831 1.912660 -1.861667 34.649130 -3.951726 -15.957227 -15.650402 1.521200 -0.000001 -42.661500 5.218721 -3.971245 -1.152996 0.643063 -4.359704 -2.376012 -5.360009 -4.342771 3.607120 8.909037 -17.800821 -12.082522 -2.009914 -0.092042 -1.154583 0.000000 0.000000 0.000000 3.840615 21.212299 0.004494 -66.054850 9.097014 4.001953 -1.727599 -56.067681 -0.021428 13.930347 -2.262816 -0.296849 -0.233628 0.140804 -0.000000 0.000000 0.000000 0.000000 0.000000 0.000000 0.000000 12.280523 -15.710481 0.747570 81.531019 -12.927635 -24.584310 4.891003 8.377004 -0.005241 5.077481 -3.044605 -0.131398 0.118219 -0.009477 -0.000000 0.000000 0.000000 0.000000 0.000000 0.000000 0.000000 
4.566703 17.132634 -1.715848 -167.164183 73.172118 -163.159561 -11.144651 3.464481 1.017499 -13.947366 8.972096 0.504157 -2.233752 -0.187379 10.484189 1.277744 5.950925 -12.313904 -0.709999 0.000000 -18.200300 8.483256 0.296637 -1.101639 11.265544 -15.258148 -35.939286 2.167531 -1.557368 31.464824 -3.695114 -14.936530 -14.187547 0.997600 -0.000000 -46.697100 5.627052 -4.341589 -1.595496 0.749974 -4.780813 -2.438187 -5.405216 -4.758003 3.668778 9.133199 -18.546027 -12.101705 -2.074719 -0.098367 -1.148675 0.000000 0.000000 0.000000 4.824675 20.645049 -0.156555 -64.811395 9.481593 4.298382 -1.571848 -58.868133 -0.026758 13.894950 -1.896593 -0.252888 -0.235991 0.157958 0.000000 0.000000 0.000000 0.000000 0.000000 0.000000 0.000000 13.025946 -16.664089 0.711413 81.685675 -14.037424 -23.891113 5.005000 8.863753 -0.006418 6.381712 -3.502507 -0.191815 0.110807 -0.001679 -0.000000 0.000000 0.000000 0.000000 0.000000 0.000000 0.000000 
4.773133 17.236172 -1.758226 -167.274095 71.646764 -163.319804 -11.332467 3.707144 1.285200 -12.867775 8.541884 1.391363 -2.091397 -0.060001 9.663383 1.077119 5.493627 -9.310409 -0.289000 0.000000 -23.437600 8.349912 0.170309 -1.075981 12.222988 -15.837479 -35.227220 2.401363 -1.235738 28.102990 -3.400883 -13.946617 -12.347578 0.418900 -0.000001 -50.759300 5.875778 -4.740082 -2.002620 0.828953 -5.219619 -2.493026 -5.458134 -5.190264 3.729259 9.418911 -19.305524 -12.129528 -2.146087 -0.105062 -1.145430 0.000000 0.000000 0.000000 5.862413 20.020884 -0.312947 -63.550138 9.853899 4.495620 -1.431303 -61.461391 -0.031878 13.739453 -1.473128 -0.200056 -0.235406 0.174103 -0.000000 0.000000 0.000000 0.000000 0.000000 0.000000 0.000000 13.868363 -17.643457 0.664047 81.776942 -15.027160 -23.546703 5.074610 9.243608 -0.006901 7.313948 -3.648101 -0.230024 0.104268 0.003279 -0.000000 0.000000 0.000000 0.000000 0.000000 0.000000 0.000000 
4.977766 17.340503 -1.795577 -167.641251 70.067541 -163.760226 -11.482564 3.947613 1.507253 -11.875005 8.128766 2.077874 -1.951468 0.106745 9.238541 0.907356 5.050104 -6.189595 0.073200 0.000000 -29.176300 8.276715 0.062008 -1.026794 12.885143 -16.298043 -34.256788 2.600905 -0.901246 24.612755 -3.095262 -13.092173 -10.179186 -0.187200 0.000000 -54.489100 5.968642 -5.154762 -2.367345 0.879466 -5.663608 -2.539308 -5.514754 -5.627375 3.787529 9.751855 -20.065005 -12.163805 -2.220524 -0.111807 -1.144441 0.000000 0.000000 0.000000 6.933262 19.349360 -0.464898 -62.285765 10.201525 4.595692 -1.306782 -63.843036 -0.036585 13.506029 -1.040079 -0.146257 -0.232092 0.189322 0.000000 0.000000 0.000000 0.000000 0.000000 0.000000 0.000000 14.773676 -18.632174 0.608794 81.839443 -15.888758 -23.615201 5.100277 9.469408 -0.006701 7.842956 -3.532098 -0.239523 0.098863 0.005589 -0.000000 0.000000 0.000000 0.000000 0.000000 0.000000 0.000000 
